<?xml version="1.0" encoding="UTF-8"?>
<svg version="1.1" xmlns="http://www.w3.org/2000/svg" width="113" height="104">
<path d="M0 0 C37.29 0 74.58 0 113 0 C113 34.32 113 68.64 113 104 C75.71 104 38.42 104 0 104 C0 69.68 0 35.36 0 0 Z " fill="#1D1F1F" transform="translate(0,0)"/>
<path d="M0 0 C4.20475482 1.6997945 6.20472472 3.8425204 8 8 C8.6347778 12.8968573 7.93867557 16.15104186 5.28125 20.35546875 C3.15064093 23.09018344 0.8187497 24.97785348 -2 27 C-2.66 27 -3.32 27 -4 27 C-3.65066406 27.67546875 -3.30132812 28.3509375 -2.94140625 29.046875 C-2.48636719 29.93890625 -2.03132813 30.8309375 -1.5625 31.75 C-1.11003906 32.63171875 -0.65757813 33.5134375 -0.19140625 34.421875 C2.4010471 40.03177406 3.12451031 46.11793255 1.38671875 52.1171875 C-2.00428334 59.79549178 -8.46154892 64.68560335 -16 68 C-33.04883504 73.50452697 -56.28664731 75.83119947 -72.96875 68.0859375 C-77.56450087 65.31497007 -81.02888428 60.95327788 -83 56 C-83.265625 52.72265625 -83.265625 52.72265625 -83.25 49.0625 C-83.25515625 47.85722656 -83.2603125 46.65195313 -83.265625 45.41015625 C-83.0123664 42.15876275 -82.39643877 39.92033029 -81 37 C-81.58007812 37.04640625 -82.16015625 37.0928125 -82.7578125 37.140625 C-88.38203957 37.40049028 -91.64797649 36.93754508 -96 33 C-98.91803293 28.6229506 -99.64048309 25.21536229 -99 20 C-97.26387291 15.68194031 -94.95983393 12.48924343 -91 10 C-85.86063332 8.54034994 -81.33613396 8.44738339 -76.5 10.8125 C-74.28293954 12.0709544 -72.82087718 13.17912282 -71 15 C-55.7256146 19.33353842 -37.39116647 18.00931762 -22 15 C-19.33641668 14.62937908 -16.67092916 14.31422696 -14 14 C-12.02 16.64 -10.04 19.28 -8 22 C-6.02 21.67 -4.04 21.34 -2 21 C-1.43170319 17.84279551 -1.23193029 15.13372443 -2 12 C-4.09485724 9.98273007 -6.19561633 8.68937072 -8.73828125 7.2890625 C-10.8922323 6.06142201 -12.34798067 4.82844858 -14 3 C-9.57405393 -0.86375893 -5.64462036 -0.66892417 0 0 Z " fill="#F9F9F9" transform="translate(102,30)"/>
<path d="M0 0 C15.51 0 31.02 0 47 0 C44.95929817 1.02035092 42.91716337 2.03885791 40.8515625 3.0078125 C32.69916819 7.0983121 28.31697343 13.09093811 24.8125 21.4140625 C23.22015277 26.48201379 22.61810541 31.73797108 22 37 C21.34773438 37.02578125 20.69546875 37.0515625 20.0234375 37.078125 C12.72638531 37.55168001 8.70477256 39.08169276 3.625 44.5625 C1.32788781 49.42177578 1.33708502 53.71284879 2 59 C3.69555753 63.1942739 6.2415475 65.52283812 10 68 C12.3244482 68.85535828 14.58029102 69.43065671 17 70 C16.95359375 70.90621094 16.9071875 71.81242187 16.859375 72.74609375 C16.58019138 82.16854099 17.35899447 88.47334448 23.3125 95.875 C29.25893912 100.57683558 35.68342654 101.74867456 43 103 C43 103.33 43 103.66 43 104 C28.81 104 14.62 104 0 104 C0 69.68 0 35.36 0 0 Z " fill="#FCFCFC" transform="translate(0,0)"/>
<path d="M0 0 C18.81 0 37.62 0 57 0 C57 34.32 57 68.64 57 104 C42.15 104 27.3 104 12 104 C12 103.67 12 103.34 12 103 C12.96679688 102.82984375 13.93359375 102.6596875 14.9296875 102.484375 C26.58386037 100.35220304 38.36401994 97.85445098 46.3828125 88.36328125 C50.32464727 82.00948465 49.82996589 74.18239715 49 67 C47.95908793 64.18235872 46.81026933 62.43254941 45 60 C45 59.34 45 58.68 45 58 C45.9075 57.443125 46.815 56.88625 47.75 56.3125 C51.44454357 53.68369015 53.59333609 51.27500094 55 47 C55.69280585 42.54532313 56.05453284 38.17821537 54.046875 34.03125 C51.54378694 30.79941478 48.94801412 28.89727594 45 28 C40.08864256 27.41683325 36.94520314 27.46724914 32.5625 29.9375 C31.716875 30.618125 30.87125 31.29875 30 32 C29.01 32.495 29.01 32.495 28 33 C27.91363281 32.38253906 27.82726562 31.76507812 27.73828125 31.12890625 C26.27907278 22.33349375 22.60182179 13.27170886 15.2890625 7.6953125 C10.47905113 4.48230095 5.54413684 2.57853896 0 1 C0 0.67 0 0.34 0 0 Z " fill="#FBFBFB" transform="translate(56,0)"/>
<path d="M0 0 C7.61502924 2.58623635 11.75784339 8.93863778 15.37109375 15.84765625 C16.2672216 18.91452857 16.09524236 21.82652467 16 25 C15.31188232 25.03440186 14.62376465 25.06880371 13.91479492 25.10424805 C-1.53749449 25.93349563 -16.31419255 27.34843019 -30.92822266 32.70703125 C-33.8927433 33.73215321 -35.4587861 34.23573265 -38.39453125 32.95703125 C-41.11519084 29.64060678 -40.71619528 26.62985306 -40.58984375 22.48046875 C-39.27766578 14.73774974 -35.22186929 5.91386268 -29 1 C-23.92289249 -0.2520078 -19.17257965 0.49522844 -14.6875 3.125 C-8.30332961 7.72934107 -5.46782693 12.26054893 -4 20 C-2.1128125 20.0309375 -2.1128125 20.0309375 -0.1875 20.0625 C0.52019531 20.07410156 1.22789063 20.08570312 1.95703125 20.09765625 C4.20305461 20.08263217 4.20305461 20.08263217 7 19 C6.7481287 11.19198969 4.37504865 6.40871041 0 0 Z " fill="#F6F6F6" transform="translate(65,7)"/>
<path d="M0 0 C0 0.66 0 1.32 0 2 C0.61488281 2.04898437 1.22976562 2.09796875 1.86328125 2.1484375 C2.67152344 2.22320312 3.47976562 2.29796875 4.3125 2.375 C5.51326172 2.47941406 5.51326172 2.47941406 6.73828125 2.5859375 C9 3 9 3 12 5 C11.67 5.99 11.34 6.98 11 8 C10.21625 7.505 9.4325 7.01 8.625 6.5 C3.94570844 4.56374142 -0.0208631 3.7511611 -5 5 C-7.78773839 7.24205343 -9.32351781 9.87231291 -11 13 C-11.4125 13.69738281 -11.825 14.39476562 -12.25 15.11328125 C-15.50735322 21.29999031 -15.41839611 27.13133054 -15 34 C-11.60697786 35.70903359 -11.60697786 35.70903359 -7.9375 35.5390625 C-7.298125 35.23742188 -6.65875 34.93578125 -6 34.625 C-2.83752708 33.26537622 -0.49528873 32.67231668 3 33 C3 33.66 3 34.32 3 35 C-0.63 35.99 -4.26 36.98 -8 38 C-8 38.66 -8 39.32 -8 40 C-6.02 40 -4.04 40 -2 40 C-1.67 40.99 -1.34 41.98 -1 43 C-7.0042591 42.73837651 -10.43492045 42.18465625 -15 38 C-19.7330358 35.16017852 -24.77729798 35.9469674 -30 37 C-33.01002812 38.19980142 -33.76538385 38.50607127 -35.1875 41.5 C-35.455625 42.325 -35.72375 43.15 -36 44 C-36.33 44.66 -36.66 45.32 -37 46 C-37.59639589 52.08323808 -36.42872436 55.14264048 -33 60 C-30.11951497 61.81250859 -27.61489136 62.32809782 -24.25 62.625 C-23.45078125 62.69976562 -22.6515625 62.77453125 -21.828125 62.8515625 C-21.22484375 62.90054688 -20.6215625 62.94953125 -20 63 C-20.23589844 64.02673828 -20.23589844 64.02673828 -20.4765625 65.07421875 C-21.73554333 72.11135789 -22.61718009 80.25609735 -18.875 86.625 C-13.76677464 93.24311517 -7.27193162 95.52838382 0.81494141 96.75244141 C16.98595717 98.58455425 38.07581729 98.60965514 52.2734375 89.41796875 C57.28211518 85.30450722 61.5111117 80.61332778 62.21484375 73.97265625 C62.50870713 67.09625318 60.84692801 61.77039201 57 56 C57 55.01 57 54.02 57 53 C58.64453125 51.60546875 58.64453125 51.60546875 60.8125 50.1875 C64.52775938 47.51777379 66.54210564 45.46480146 68 41 C68.39849239 37.21432232 68.31724972 34.77549931 66.875 31.25 C62.88898994 26.46678793 57.98093551 25.59809355 52 25 C55.34269485 22.77153677 56.95522575 22.73128149 60.86328125 23.31640625 C64.65163994 24.528404 67.34982362 27.10401016 70 30 C71.97762732 33.95525464 71.42863836 38.68980312 71 43 C69.36600664 47.8664585 66.26107264 51.19666274 62 54 C61.34 54 60.68 54 60 54 C60.3609375 54.47566406 60.721875 54.95132813 61.09375 55.44140625 C65.8423578 62.60388968 66.13736549 69.60169325 65 78 C62.35138791 85.81610832 57.47291927 89.76124466 50.375 93.5625 C32.0543811 102.43612317 8.61569724 102.47303838 -10.79296875 97.36328125 C-15.94347112 95.17384724 -19.97710513 92.1219224 -22.3125 86.875 C-22.61800781 86.21242188 -22.92351563 85.54984375 -23.23828125 84.8671875 C-24.72228756 81.22946946 -25.13550085 78.40631694 -25.125 74.5 C-25.12886719 73.06140625 -25.12886719 73.06140625 -25.1328125 71.59375 C-25 69 -25 69 -24 66 C-24.99 65.979375 -25.98 65.95875 -27 65.9375 C-32.14343303 65.23421426 -35.63722818 61.75646218 -39 58 C-40.93795159 52.18614524 -41.02055692 46.07891224 -38.3125 40.5625 C-35.51652117 37.46425319 -32.75038531 34.87519266 -29 33 C-27.29297265 32.93003986 -25.58331997 32.91559846 -23.875 32.9375 C-22.96492188 32.94652344 -22.05484375 32.95554688 -21.1171875 32.96484375 C-20.41851563 32.97644531 -19.71984375 32.98804688 -19 33 C-19.0825 31.741875 -19.165 30.48375 -19.25 29.1875 C-19.2203341 19.73891054 -14.81915656 11.24763168 -9 4 C-5.56729654 0.64902757 -4.88026129 0 0 0 Z " fill="#1A1C1C" transform="translate(41,4)"/>
<path d="M0 0 C-0.99 1.485 -0.99 1.485 -2 3 C-0.93580316 5.21025497 0.13239294 7.18535011 1.5625 9.1875 C3.52952687 13.03603083 3.73029365 16.73119952 4 21 C1.1004339 22.65876079 -0.91635209 23.2361216 -4.25 23.125 C-5.4875 23.08375 -6.725 23.0425 -8 23 C-8.24234375 22.33613281 -8.4846875 21.67226563 -8.734375 20.98828125 C-10.63781965 15.9734367 -12.4904656 12.11462654 -16 8 C-16.144375 7.278125 -16.28875 6.55625 -16.4375 5.8125 C-16.83838329 3.77749297 -16.83838329 3.77749297 -19.0625 2.875 C-22.68658464 1.79548543 -26.32038165 0.87312978 -30 0 C-30 -0.66 -30 -1.32 -30 -2 C-18.57474001 -6.985568 -11.30185027 -4.89106349 0 0 Z " fill="#141616" transform="translate(69,5)"/>
<path d="M0 0 C0.9077417 -0.02143066 1.8154834 -0.04286133 2.75073242 -0.06494141 C8.02085796 -0.09122147 11.59029711 0.36250066 16.1875 3.25 C16.1875 3.91 16.1875 4.57 16.1875 5.25 C13.85590696 5.90272461 11.52252204 6.54725202 9.1875 7.1875 C8.21490234 7.46110352 8.21490234 7.46110352 7.22265625 7.74023438 C-2.33620408 10.34289437 -11.57392283 10.40459073 -21.4375 10.375 C-23.38269531 10.38080078 -23.38269531 10.38080078 -25.3671875 10.38671875 C-26.62015625 10.38542969 -27.873125 10.38414063 -29.1640625 10.3828125 C-30.29666504 10.38168457 -31.42926758 10.38055664 -32.59619141 10.37939453 C-35.74868544 10.25256731 -38.71604754 9.83910403 -41.8125 9.25 C-41.8125 8.59 -41.8125 7.93 -41.8125 7.25 C-27.50159809 2.33659034 -15.1502256 0.20066524 0 0 Z " fill="#F5F6F6" transform="translate(74.8125,34.75)"/>
<path d="M0 0 C1 1 1 1 1.4375 3.625 C0.88378725 7.89649835 -0.79390263 9.43616246 -3.78515625 12.38671875 C-4.38650391 13.18529297 -4.38650391 13.18529297 -5 14 C-4.67 14.99 -4.34 15.98 -4 17 C0.78655805 16.71110084 0.78655805 16.71110084 4.8125 14.4375 C5.204375 13.963125 5.59625 13.48875 6 13 C6.66 13 7.32 13 8 13 C7.63641299 15.63600583 7.24645089 16.7718664 5.265625 18.60546875 C2.01650475 20.60535829 -0.82598439 20.45704821 -4.5625 20.59375 C-7.4506779 21.07511298 -8.73221955 22.20817347 -11 24 C-14.37088918 24.49939099 -16.78013019 24.72071083 -19.78515625 22.9453125 C-21.4375 21.625 -21.4375 21.625 -24 19 C-24 18.34 -24 17.68 -24 17 C-21.13275314 17.57344937 -20.1385485 17.8614515 -18 20 C-13.34805286 20.34216235 -13.34805286 20.34216235 -9 19 C-9 17.68 -9 16.36 -9 15 C-9.81404297 14.63648437 -9.81404297 14.63648437 -10.64453125 14.265625 C-18.26839827 10.69408369 -18.26839827 10.69408369 -20 7 C-20.0625 4.9375 -20.0625 4.9375 -19 3 C-13.55143208 -1.23777505 -6.56643727 -0.48849033 0 0 Z " fill="#0D0F0F" transform="translate(73,67)"/>
<path d="M0 0 C5.37424008 3.76298784 9.78014198 8.7171694 11.26953125 15.23046875 C11.51717528 17.12461091 11.6439048 19.03387918 11.74609375 20.94140625 C9.43609375 20.94140625 7.12609375 20.94140625 4.74609375 20.94140625 C4.39417969 20.13316406 4.04226562 19.32492188 3.6796875 18.4921875 C-0.43669015 9.48864847 -0.43669015 9.48864847 -8.25390625 3.94140625 C-10.92933043 3.06213679 -13.47764312 2.47717633 -16.25390625 1.94140625 C-16.25390625 1.28140625 -16.25390625 0.62140625 -16.25390625 -0.05859375 C-10.88385924 -1.54890496 -5.19225305 -2.43864918 0 0 Z " fill="#F0F0F0" transform="translate(58.25390625,4.05859375)"/>
<path d="M0 0 C0.66 0.33 1.32 0.66 2 1 C0.92230285 4.42903639 -0.03782861 6.03606914 -2.6875 8.5625 C-3.8321875 9.7690625 -3.8321875 9.7690625 -5 11 C-4.99530794 13.10231241 -4.99530794 13.10231241 -4 15 C-3.66666667 16.33333333 -3.33333333 17.66666667 -3 19 C-6.37462715 18.45276317 -8.08235 17.9451 -11 16 C-11 17.32 -11 18.64 -11 20 C-12.32 20 -13.64 20 -15 20 C-14.56699236 13.18012971 -13.09212176 8.08356979 -10 2 C-7.525 2.99 -7.525 2.99 -5 4 C-3.35 2.68 -1.7 1.36 0 0 Z " fill="#141616" transform="translate(48,13)"/>
<path d="M0 0 C0.88855164 2.99553637 1.19605797 4.51639033 0.00390625 7.45703125 C-0.47175781 8.23433594 -0.94742187 9.01164062 -1.4375 9.8125 C-1.91058594 10.60269531 -2.38367187 11.39289062 -2.87109375 12.20703125 C-3.42990234 13.09455078 -3.42990234 13.09455078 -4 14 C-10.75 12.25 -10.75 12.25 -13 10 C-13.67030965 2.96174863 -13.67030965 2.96174863 -11.5625 -0.0625 C-7.63525308 -1.49929765 -4.05060927 -0.71837729 0 0 Z " fill="#0D0F0F" transform="translate(27,50)"/>
<path d="M0 0 C3.625 -0.1875 3.625 -0.1875 7 0 C6.84273437 0.68449219 6.68546875 1.36898437 6.5234375 2.07421875 C5.07932582 10.14615642 4.5068121 18.3987286 9.3203125 25.3515625 C14.10724958 30.04944028 19.01412771 31.84669725 25.375 33.25 C26.11105469 33.42273438 26.84710938 33.59546875 27.60546875 33.7734375 C29.40113016 34.1932025 31.20024377 34.59815419 33 35 C33 35.66 33 36.32 33 37 C23.51875296 36.2228486 13.69190136 35.34476979 7 28 C3.75036727 22.64334734 1.85802892 17.81324079 1.875 11.5 C1.87242188 10.5409375 1.86984375 9.581875 1.8671875 8.59375 C2 6 2 6 3 3 C1.35 3 -0.3 3 -2 3 C-1.34 2.01 -0.68 1.02 0 0 Z " fill="#252626" transform="translate(14,67)"/>
<path d="M0 0 C0 0.66 0 1.32 0 2 C-1.62170262 2.49021049 -3.24763695 2.96642122 -4.875 3.4375 C-5.77992187 3.70433594 -6.68484375 3.97117187 -7.6171875 4.24609375 C-15.87721394 6.08695415 -24.25652411 6.18196423 -32.6875 6.1875 C-33.68072266 6.19974609 -34.67394531 6.21199219 -35.69726562 6.22460938 C-41.20444634 6.23558714 -45.79872699 5.84045045 -51 4 C-51 3.67 -51 3.34 -51 3 C-50.14470703 2.98541748 -49.28941406 2.97083496 -48.40820312 2.95581055 C-27.44408406 2.7637541 -27.44408406 2.7637541 -6.80078125 -0.4765625 C-4.06548477 -0.98776156 -2.5818025 -0.94226368 0 0 Z " fill="#242626" transform="translate(88,42)"/>
<path d="M0 0 C6.75 1.75 6.75 1.75 9 4 C9.44366037 7.99294332 9.58810818 10.15984546 7.25 13.5 C5 15 5 15 3.06640625 14.8671875 C0.26618997 13.69204948 -0.66557762 12.15055343 -2.3125 9.625 C-3.11107422 8.43777344 -3.11107422 8.43777344 -3.92578125 7.2265625 C-5 5 -5 5 -4 2 C-2.68 2 -1.36 2 0 2 C0 1.34 0 0.68 0 0 Z " fill="#0B0E0E" transform="translate(92,38)"/>
<path d="M0 0 C3.35066172 1.385988 4.83371851 2.7756177 6.6875 5.875 C7.10386719 6.55304687 7.52023438 7.23109375 7.94921875 7.9296875 C8.97769469 9.95605274 9.54720627 11.78081315 10 14 C12.31 14.33 14.62 14.66 17 15 C16.67 13.02 16.34 11.04 16 9 C16.66 9 17.32 9 18 9 C18.33 8.34 18.66 7.68 19 7 C19.33 9.97 19.66 12.94 20 16 C16.38863788 17.80568106 15.455469 18.24851563 11.75 18.125 C10.5125 18.08375 9.275 18.0425 8 18 C7.75765625 17.33613281 7.5153125 16.67226563 7.265625 15.98828125 C5.36132004 10.97117011 3.50073991 7.12587203 0 3 C0 2.01 0 1.02 0 0 Z " fill="#1D1F1F" transform="translate(53,10)"/>
<path d="M0 0 C-0.36358701 2.63600583 -0.75354911 3.7718664 -2.734375 5.60546875 C-5.98349525 7.60535829 -8.82598439 7.45704821 -12.5625 7.59375 C-15.4506779 8.07511298 -16.73221955 9.20817347 -19 11 C-22.37088918 11.49939099 -24.78013019 11.72071083 -27.78515625 9.9453125 C-29.4375 8.625 -29.4375 8.625 -32 6 C-32 5.34 -32 4.68 -32 4 C-29.13275314 4.57344937 -28.1385485 4.8614515 -26 7 C-21.20507073 7.5477975 -21.20507073 7.5477975 -17.0625 5.5 C-14.3217505 3.50672764 -12.23890532 4.00773253 -8.96484375 4.16015625 C-5.0425592 3.84044717 -3.73086531 0 0 0 Z " fill="#0D0F0F" transform="translate(81,80)"/>
<path d="M0 0 C6.76970811 2.2178632 9.99603821 7.4145641 13.37109375 13.453125 C16.42154098 19.82845415 16.42154098 19.82845415 15 24 C14.67 24.99 14.34 25.98 14 27 C8.39 27 2.78 27 -3 27 C-3 26.67 -3 26.34 -3 26 C2.28 26 7.56 26 13 26 C11.58916258 17.9197493 9.35776287 10.39182695 2.6875 5.125 C1.800625 4.42375 0.91375 3.7225 0 3 C0 2.01 0 1.02 0 0 Z " fill="#2B2D2D" transform="translate(68,6)"/>
<path d="M0 0 C2.375 0.3125 2.375 0.3125 5 1 C7.44897847 4.67346771 7.31537716 6.66356399 7 11 C6.34 11.66 5.68 12.32 5 13 C3 12.8125 3 12.8125 1 12 C0.34 11.01 -0.32 10.02 -1 9 C-0.34 8.34 0.32 7.68 1 7 C0.01 6.67 -0.98 6.34 -2 6 C-1.49396008 3.83125748 -1.00016187 2.00032373 0 0 Z " fill="#181B1B" transform="translate(47,54)"/>
<path d="M0 0 C2.8992226 0.46761655 3.86675182 0.86675182 6 3 C6.265625 4.875 6.265625 4.875 6.25 7 C6.25515625 7.70125 6.2603125 8.4025 6.265625 9.125 C6 11 6 11 4 13 C1.875 12.625 1.875 12.625 0 12 C-0.33 10.68 -0.66 9.36 -1 8 C-0.34 8 0.32 8 1 8 C1 7.34 1 6.68 1 6 C0.01 6 -0.98 6 -2 6 C-1.125 1.125 -1.125 1.125 0 0 Z " fill="#121515" transform="translate(73,52)"/>
<path d="M0 0 C0 0.66 0 1.32 0 2 C-7.1331561 3.71979056 -13.80233992 4.25870025 -21.125 4.125 C-22.08148438 4.11597656 -23.03796875 4.10695313 -24.0234375 4.09765625 C-26.34923525 4.07439827 -28.67447294 4.04172213 -31 4 C-31 3.34 -31 2.68 -31 2 C-30.42032471 1.97494385 -29.84064941 1.9498877 -29.2434082 1.92407227 C-26.59957893 1.80753766 -23.95605591 1.68507318 -21.3125 1.5625 C-20.40048828 1.52318359 -19.48847656 1.48386719 -18.54882812 1.44335938 C-17.66259766 1.40146484 -16.77636719 1.35957031 -15.86328125 1.31640625 C-14.64572144 1.26141968 -14.64572144 1.26141968 -13.40356445 1.20532227 C-8.82035612 0.81380594 -4.65383357 -0.10822869 0 0 Z " fill="#070A0A" transform="translate(78,100)"/>
<path d="M0 0 C0.33 0 0.66 0 1 0 C1.08636719 0.66386719 1.17273438 1.32773437 1.26171875 2.01171875 C2.18873917 7.83748928 3.02799415 11.35386238 8 15 C10.30662436 16.17723982 12.56456057 17.09267943 15 18 C15 18.33 15 18.66 15 19 C11.14986442 19.56147811 9.09892063 19.72225879 5.7890625 17.546875 C0.26760118 12.80280354 0.26760118 12.80280354 -1 9 C-1.17812624 6.3071504 -1.08727698 3.70558632 -1 1 C-0.67 0.67 -0.34 0.34 0 0 Z " fill="#131515" transform="translate(2,50)"/>
<path d="M0 0 C0.33 0.99 0.66 1.98 1 3 C0.31035156 3.04898438 -0.37929688 3.09796875 -1.08984375 3.1484375 C-7.23409469 3.63728051 -13.0149077 4.52825599 -19 6 C-19 5.34 -19 4.68 -19 4 C-19.66 3.67 -20.32 3.34 -21 3 C-13.90215087 1.18225815 -7.34918342 -0.43230491 0 0 Z " fill="#2F3030" transform="translate(63,33)"/>
<path d="M0 0 C1.32 0 2.64 0 4 0 C4 0.66 4 1.32 4 2 C4.61488281 2.04898437 5.22976562 2.09796875 5.86328125 2.1484375 C6.67152344 2.22320312 7.47976562 2.29796875 8.3125 2.375 C9.51326172 2.47941406 9.51326172 2.47941406 10.73828125 2.5859375 C13 3 13 3 16 5 C15.67 5.99 15.34 6.98 15 8 C14.21625 7.505 13.4325 7.01 12.625 6.5 C8.06389345 4.61264557 3.88406716 4.17792929 -1 5 C-3.2700515 6.42764437 -3.2700515 6.42764437 -5 8 C-3.62901008 5.04709864 -2.22467373 2.39580248 0 0 Z " fill="#151717" transform="translate(37,4)"/>
<path d="M0 0 C0.57234375 0.32355469 1.1446875 0.64710937 1.734375 0.98046875 C0.744375 0.98046875 -0.245625 0.98046875 -1.265625 0.98046875 C-1.595625 1.64046875 -1.925625 2.30046875 -2.265625 2.98046875 C-6.885625 2.98046875 -11.505625 2.98046875 -16.265625 2.98046875 C-16.595625 3.64046875 -16.925625 4.30046875 -17.265625 4.98046875 C-17.925625 4.65046875 -18.585625 4.32046875 -19.265625 3.98046875 C-19.265625 3.32046875 -19.265625 2.66046875 -19.265625 1.98046875 C-13.07161901 -0.72237023 -6.51763002 -2.93293351 0 0 Z " fill="#181A1A" transform="translate(58.265625,1.01953125)"/>
<path d="M0 0 C2.31 0 4.62 0 7 0 C6.01 5.61 5.02 11.22 4 17 C3.34 17 2.68 17 2 17 C1.97294271 15.22925083 1.95357805 13.45838289 1.9375 11.6875 C1.92589844 10.70136719 1.91429687 9.71523437 1.90234375 8.69921875 C2 6 2 6 3 3 C1.35 3 -0.3 3 -2 3 C-1.34 2.01 -0.68 1.02 0 0 Z " fill="#242626" transform="translate(14,67)"/>
<path d="M0 0 C0 0.66 0 1.32 0 2 C-1.74816858 2.50636607 -3.49862263 3.00484619 -5.25 3.5 C-6.22453125 3.7784375 -7.1990625 4.056875 -8.203125 4.34375 C-11 5 -11 5 -15 5 C-15 4.34 -15 3.68 -15 3 C-16.65 3 -18.3 3 -20 3 C-20 2.67 -20 2.34 -20 2 C-17.41842632 1.46867611 -14.83538244 0.94965621 -12.25 0.4375 C-11.52039063 0.28603516 -10.79078125 0.13457031 -10.0390625 -0.02148438 C-6.33442927 -0.74557178 -3.60677678 -1.09817231 0 0 Z " fill="#353636" transform="translate(88,42)"/>
<path d="M0 0 C2.86724686 0.57344937 3.8614515 0.8614515 6 3 C8.21072977 3.24253813 8.21072977 3.24253813 10.625 3.125 C11.44226562 3.10695313 12.25953125 3.08890625 13.1015625 3.0703125 C13.72804688 3.04710938 14.35453125 3.02390625 15 3 C15 3.99 15 4.98 15 6 C11.85088521 7.57455739 9.47991184 7.34799118 6 7 C3.54839009 5.56855892 2.01835529 4.06758347 0 2 C0 1.34 0 0.68 0 0 Z " fill="#292A2A" transform="translate(49,84)"/>
<path d="M0 0 C0.33 0 0.66 0 1 0 C1.33 2.97 1.66 5.94 2 9 C-1.61136212 10.80568106 -2.544531 11.24851563 -6.25 11.125 C-8.10625 11.063125 -8.10625 11.063125 -10 11 C-9.34 9.68 -8.68 8.36 -8 7 C-5.69 7.33 -3.38 7.66 -1 8 C-1.33 6.02 -1.66 4.04 -2 2 C-1.34 2 -0.68 2 0 2 C0 1.34 0 0.68 0 0 Z " fill="#333535" transform="translate(71,17)"/>
<path d="M0 0 C4.07251511 4.07251511 3.59262096 6.37816922 4 12 C0.04 11.67 -3.92 11.34 -8 11 C-7.67 10.34 -7.34 9.68 -7 9 C-4.69 9 -2.38 9 0 9 C0 6.03 0 3.06 0 0 Z " fill="#292B2B" transform="translate(22,28)"/>
<path d="M0 0 C0.99 0.33 1.98 0.66 3 1 C-0.10378852 3.63822024 -2.81462924 4.70365731 -6.75 5.6875 C-8.22726563 6.06455078 -8.22726563 6.06455078 -9.734375 6.44921875 C-10.48203125 6.63097656 -11.2296875 6.81273438 -12 7 C-12 6.34 -12 5.68 -12 5 C-12.66 4.67 -13.32 4.34 -14 4 C-13.15695313 3.79503906 -12.31390625 3.59007813 -11.4453125 3.37890625 C-10.34960938 3.10949219 -9.25390625 2.84007813 -8.125 2.5625 C-7.03445312 2.29566406 -5.94390625 2.02882813 -4.8203125 1.75390625 C-2.07515279 1.1213522 -2.07515279 1.1213522 0 0 Z " fill="#242626" transform="translate(90,95)"/>
<path d="M0 0 C0.66 0 1.32 0 2 0 C2 0.99 2 1.98 2 3 C2.99 3.33 3.98 3.66 5 4 C8.12800621 9.02715283 8.12800621 9.02715283 7.6875 12.375 C7.460625 12.91125 7.23375 13.4475 7 14 C6.34 14 5.68 14 5 14 C4.80664062 13.45730469 4.61328125 12.91460937 4.4140625 12.35546875 C4.15367188 11.64003906 3.89328125 10.92460938 3.625 10.1875 C3.36976562 9.47980469 3.11453125 8.77210937 2.8515625 8.04296875 C1.9734231 5.75226641 1.9734231 5.75226641 0 3 C0 2.01 0 1.02 0 0 Z " fill="#242626" transform="translate(98,57)"/>
<path d="M0 0 C0 0.66 0 1.32 0 2 C-1.45635371 2.22174933 -2.91522956 2.42698698 -4.375 2.625 C-5.18710938 2.74101563 -5.99921875 2.85703125 -6.8359375 2.9765625 C-7.55007812 2.98429687 -8.26421875 2.99203125 -9 3 C-9.66 2.34 -10.32 1.68 -11 1 C-7.26562152 0.12132271 -3.83225427 -0.08912219 0 0 Z " fill="#141616" transform="translate(78,100)"/>
<path d="M0 0 C1.32 0 2.64 0 4 0 C4.33 0.99 4.66 1.98 5 3 C2.41210938 4.07421875 2.41210938 4.07421875 -0.17578125 5.1484375 C-2.26533932 6.06806692 -2.26533932 6.06806692 -5 8 C-3.62901008 5.04709864 -2.22467373 2.39580248 0 0 Z " fill="#0C0E0E" transform="translate(37,4)"/>
<path d="M0 0 C1.41623216 -0.05447047 2.83308191 -0.09300508 4.25 -0.125 C5.03890625 -0.14820312 5.8278125 -0.17140625 6.640625 -0.1953125 C9.20731941 0.0171622 10.7916067 0.71345895 13 2 C12.01 2 11.02 2 10 2 C9.67 2.66 9.34 3.32 9 4 C4.84345641 3.53816182 2.78533429 3.11990898 0 0 Z " fill="#484A4A" transform="translate(47,0)"/>
<path d="M0 0 C-0.1875 1.8125 -0.1875 1.8125 -1 4 C-3.5625 5.75 -3.5625 5.75 -6 7 C-6.33 6.01 -6.66 5.02 -7 4 C-2.25 0 -2.25 0 0 0 Z " fill="#1F2121" transform="translate(81,80)"/>
<path d="M0 0 C1.258125 -0.020625 2.51625 -0.04125 3.8125 -0.0625 C4.52019531 -0.07410156 5.22789063 -0.08570312 5.95703125 -0.09765625 C8 0 8 0 11 1 C11 1.66 11 2.32 11 3 C9.54077307 2.88590407 8.08259402 2.75834456 6.625 2.625 C5.40683594 2.52058594 5.40683594 2.52058594 4.1640625 2.4140625 C2 2 2 2 0 0 Z " fill="#151717" transform="translate(36,101)"/>
<path d="M0 0 C0.33 0 0.66 0 1 0 C1.33 4.62 1.66 9.24 2 14 C1.34 14 0.68 14 0 14 C-1.13016601 8.97703996 -0.77916092 5.02125926 0 0 Z " fill="#1C1E1E" transform="translate(18,76)"/>
<path d="M0 0 C0 0.66 0 1.32 0 2 C-3.63 1.67 -7.26 1.34 -11 1 C-6.8204355 -1.78637633 -4.85331323 -0.79562512 0 0 Z " fill="#0D0F0F" transform="translate(104,28)"/>
<path d="M0 0 C0.33 0.66 0.66 1.32 1 2 C0.06553465 4.03144641 -0.93224776 6.03533587 -2 8 C-2.99 8 -3.98 8 -5 8 C-3.375 2.25 -3.375 2.25 0 0 Z " fill="#232525" transform="translate(105,80)"/>
<path d="M0 0 C3.625 -0.1875 3.625 -0.1875 7 0 C5.93453047 2.13093906 4.70840281 3.36587557 3 5 C3 4.34 3 3.68 3 3 C1.35 3 -0.3 3 -2 3 C-1.34 2.01 -0.68 1.02 0 0 Z " fill="#3A3B3B" transform="translate(14,67)"/>
<path d="M0 0 C3.91402949 1.26941497 5.79072873 2.51167694 8 6 C5.6875 5.8125 5.6875 5.8125 3 5 C1.1875 2.4375 1.1875 2.4375 0 0 Z " fill="#D8D8D8" transform="translate(65,7)"/>
</svg>
